
<svg width="296px" height="103px" viewBox="0 0 296 103" version="1.1" xmlns="http://www.w3.org/2000/svg" xmlns:xlink="http://www.w3.org/1999/xlink">
    <defs>
        <polygon id="path-1" points="1 0.5 1.5 0.5 1.5 1 1 1"></polygon>
        <polygon id="path-3" points="0.753471666 0.916975362 20.128 0.916975362 20.128 52.5541578 0.753471666 52.5541578"></polygon>
    </defs>
    <g id="Page-1" stroke="none" stroke-width="1" fill="none" fill-rule="evenodd">
        <g id="Group-40" transform="translate(-1.000000, -1.000000)">
            <g id="Group-19" transform="translate(1.000000, 0.907000)" fill="#000000">
                <path d="M98.5793,75.6075 L97.9893,75.8975 C95.4893,77.0865 92.7493,79.0375 90.3393,80.4075 C85.6193,83.0975 80.2393,86.2275 76.8893,90.5865 C74.2493,94.0275 73.6493,99.4775 79.8493,99.5175 C83.2793,99.5375 85.9093,96.7475 87.9393,94.2475 C92.0793,89.1575 95.5793,83.1675 98.0293,76.8875 C98.0993,76.7075 98.5093,75.7875 98.5793,75.6075 M94.1193,56.8075 C94.2093,56.7275 94.3093,56.6575 94.3993,56.5865 C97.5893,54.1575 101.5993,53.0575 105.3893,51.9475 C106.6893,51.5675 107.3093,52.8775 106.8493,54.4575 C106.5193,55.5475 105.9993,57.7275 105.7893,58.6475 C105.2393,60.9975 104.7593,63.3575 104.2693,65.7075 C103.9393,67.2775 103.5993,68.8075 103.2193,70.3075 L103.4293,70.8365 C108.9193,68.6075 115.1793,66.3075 120.6593,64.3365 C122.4893,63.6875 123.2593,66.5865 121.4593,67.2275 C115.3693,69.4175 107.9493,72.0975 101.9793,74.6175 C101.6893,75.4375 101.0493,77.1775 100.7093,78.0075 C97.4593,85.7875 88.5893,106.3175 76.8493,102.2175 C73.0093,100.8775 71.1193,97.3875 72.0793,93.4575 C73.3293,88.2975 78.2293,84.8275 82.3093,81.9375 C87.5193,78.2375 93.1693,75.2575 99.0193,72.6575 L99.5793,72.4075 C99.6593,72.1575 99.7293,71.9075 99.7993,71.6575 C100.1693,70.3675 100.4993,69.0775 100.7693,67.7775 C101.5093,64.3175 102.1893,60.8475 102.9993,57.4075 C103.3293,55.9975 103.3693,55.4675 103.3693,55.4675 C99.7093,56.3975 96.0293,58.0865 91.9793,61.8975 C90.7393,63.0675 88.7793,61.5775 89.6293,60.0865 C91.5393,56.7075 93.5493,53.2975 95.0493,49.7075 C95.5793,48.4375 97.0193,44.2575 95.6193,43.1475 C94.0493,41.9075 92.4593,43.3175 91.2893,44.2875 C86.5293,48.2475 84.2793,54.9775 80.4193,59.7375 C78.3993,62.2275 74.9193,64.8175 71.7593,62.3875 C70.8493,61.6775 70.1993,60.5975 69.7493,59.3075 C71.1293,56.7275 71.6593,53.6975 71.5793,50.7075 L71.7893,54.0275 C71.7893,54.0275 71.9393,57.9175 72.5093,58.7975 C75.7493,63.7475 81.7993,52.0775 83.2393,49.9075 C85.5693,46.3775 88.0293,41.7075 92.3493,40.2475 C93.0993,39.9975 93.8993,39.8575 94.6893,39.9375 C98.2593,40.3075 99.1493,44.5775 98.8893,47.5175 C98.7493,49.1975 98.0693,50.7075 97.1793,52.1175 C96.6993,52.8675 96.1793,53.5865 95.6793,54.3175 C95.3993,54.7275 95.1293,55.1275 94.8693,55.5375 C94.7193,55.7675 94.5793,55.9975 94.4393,56.2275 C94.3493,56.3775 94.2493,56.6675 94.1193,56.8075" id="Fill-1"></path>
                <path d="M58.1994,43.9073 C57.3794,44.4683 56.5994,45.2373 55.8694,46.2473 C53.1194,50.0483 50.1494,56.6273 53.9994,60.5273 C57.0394,63.5973 62.3094,63.2073 65.3194,60.2773 C67.4594,58.1973 68.4194,55.3973 68.6094,52.5173 C68.7694,54.8273 69.0394,57.3173 69.7494,59.3073 C68.7994,61.1073 67.4494,62.6783 65.6094,63.8573 C62.2294,66.0373 57.6694,65.8173 54.1594,64.0973 C53.2894,63.6783 52.1694,62.6973 51.2494,61.6673 C50.3194,60.6373 49.5894,59.5373 49.4994,58.8673 C48.1194,62.6783 46.2394,65.8773 41.0194,65.2183 C39.1694,64.9773 37.3894,64.3973 35.6694,63.6373 C33.9494,62.8673 32.2894,61.9173 30.6794,60.9283 C29.1894,64.7773 26.6694,68.3773 22.6494,70.1873 C15.3894,73.4473 4.3994,70.0083 1.1194,62.4873 C-1.4006,56.7183 1.7694,50.5373 7.9794,49.6873 C14.4094,48.7983 21.3194,51.7983 26.7194,55.0083 C27.3894,55.4073 28.3594,56.0483 29.0294,56.4683 C29.9594,52.4073 30.2794,47.6273 30.5894,43.8673 C31.3494,34.6673 31.5394,24.4573 35.1494,15.7073 C36.0694,15.9473 37.0194,16.1773 37.9894,16.3973 C33.8694,25.8573 34.2794,37.8173 33.2594,47.4873 C32.9194,50.6673 32.4194,54.6273 31.5794,57.9973 C33.9694,59.4373 36.7394,60.9573 39.3694,61.7583 C44.3894,63.2773 45.7494,60.6673 47.0994,56.5373 C48.8194,51.3073 51.0294,45.5173 55.5694,42.0873 C61.2494,37.8073 67.8794,39.8473 73.4194,43.2773 C75.0594,44.2983 73.5894,46.8273 71.8994,45.8673 C69.7094,44.5083 67.3094,43.3173 64.8894,42.8573 C64.7694,42.8273 64.6594,42.8073 64.5394,42.7873 C62.3294,42.3473 60.1594,42.5483 58.1994,43.9073 M28.1594,59.4283 L28.1394,59.4173 C25.7294,57.8773 23.0394,56.2273 20.5394,55.1473 C16.9894,53.6073 12.7994,52.2073 8.8894,52.5873 C0.2394,53.4173 3.3394,63.2983 9.0394,66.4283 C14.7594,69.5773 22.1894,69.0873 26.0894,63.4473 C26.8694,62.3173 27.6494,60.7473 28.1594,59.4283" id="Fill-3"></path>
                <path d="M71.5793,50.7071 C71.6593,53.6971 71.1293,56.7281 69.7493,59.3081 C69.0393,57.3171 68.7693,54.8271 68.6093,52.5181 C68.7093,50.8371 68.5593,49.1271 68.2193,47.5181 C68.0193,46.1171 69.5393,45.2871 70.4693,45.7771 C70.7793,45.9471 71.0193,46.2581 71.1193,46.7281 C71.3793,48.0181 71.5493,49.3571 71.5793,50.7071" id="Fill-5"></path>
                <path d="M71.8996,45.8672 C71.5196,45.6472 71.1296,45.4372 70.7496,45.2272 C68.8396,44.1972 66.8496,43.2872 64.8896,42.8572 C67.3096,43.3172 69.7096,44.5082 71.8996,45.8672" id="Fill-7"></path>
                <path d="M68.2194,47.5176 C68.5594,49.1266 68.7094,50.8366 68.6094,52.5176 C68.4694,50.6176 68.4094,48.8276 68.2194,47.5176" id="Fill-9"></path>
                <path d="M64.5392,42.7871 C62.3892,42.4371 60.2292,42.6781 58.1992,43.9071 C60.1592,42.5481 62.3292,42.3481 64.5392,42.7871" id="Fill-11"></path>
                <path d="M57.2594,1.7276 C63.1694,5.8876 59.7294,13.7876 54.1794,16.1176 C49.2594,18.1876 43.3594,17.5876 37.9894,16.3976 C38.3994,15.4276 38.8694,14.4876 39.3994,13.5776 C39.5294,13.5976 39.6494,13.6276 39.7794,13.6476 C44.0394,14.4276 49.3694,15.1376 53.4394,13.1876 C57.5894,11.2076 59.5094,3.5676 52.7594,3.4676 C49.5694,3.4176 45.8794,5.9876 43.6794,8.0776 C41.9494,9.7176 40.5394,11.5776 39.3994,13.5776 C38.4094,13.3876 37.4194,13.1776 36.4294,12.9476 C36.9694,11.8876 37.5794,10.8676 38.2594,9.8676 C41.7094,4.7876 50.8294,-2.8024 57.2594,1.7276" id="Fill-13"></path>
                <path d="M39.3996,13.5772 C38.8696,14.4872 38.3996,15.4272 37.9896,16.3972 C37.0196,16.1772 36.0696,15.9472 35.1496,15.7072 C35.5296,14.7672 35.9496,13.8472 36.4296,12.9472 C37.4196,13.1772 38.4096,13.3872 39.3996,13.5772" id="Fill-15"></path>
                <path d="M36.4294,12.9473 C35.9494,13.8473 35.5294,14.7673 35.1494,15.7073 C34.5094,15.5373 33.8794,15.3673 33.2594,15.1973 C26.5194,13.3373 19.8194,10.7673 13.6494,7.4773 C11.9394,6.5673 13.4594,3.9773 15.1594,4.8873 C21.7794,8.4173 29.0594,11.2273 36.4294,12.9473" id="Fill-17"></path>
            </g>
            <path d="M145.7785,14.1976 C139.9495,11.4336 133.4305,16.0216 131.5345,21.7416 C130.6945,24.2766 130.8665,26.7736 132.4835,28.9376 C133.6205,30.4586 135.4045,31.2626 136.6695,32.6346 C139.9105,36.1486 135.6155,37.2246 132.7445,38.6256 C131.7945,39.0906 131.7345,40.7726 132.7445,41.2166 C134.6805,42.0676 137.3605,42.4116 137.3835,44.7336 C137.4005,46.4346 135.8595,48.6276 135.3275,50.2366 C134.3685,53.1386 134.0705,56.1306 135.5005,58.9316 C138.2125,64.2466 144.6485,66.8956 149.7345,63.4776 C151.3275,62.4056 149.8285,59.8056 148.2195,60.8866 C142.9635,64.4206 137.1475,58.9656 137.6225,53.6396 C137.8795,50.7596 139.5855,48.2966 140.2765,45.5306 C141.4415,40.8656 140.9855,41.5206 137.0775,39.8026 C137.0775,40.6656 137.0775,38.9396 137.0775,39.8026 C141.2835,37.7486 143.8225,36.8626 139.8065,31.5606 C137.7275,28.8166 133.3925,27.8186 134.1265,23.5726 C134.8385,19.4586 139.9935,14.7626 144.2645,16.7876 C145.9995,17.6106 147.5235,15.0256 145.7785,14.1976" id="Fill-20" fill="#000000"></path>
            <g id="Group-24" transform="translate(0.000000, 102.907000)">
                <mask id="mask-2" fill="white">
                    <use xlink:href="#path-1"></use>
                </mask>
                <g id="Clip-23"></g>
                <path d="" id="Fill-22" fill="#000000" mask="url(#mask-2)"></path>
            </g>
            <path d="M120.8429,77.7654 C121.7119,73.1444 123.3279,68.8854 125.7689,64.8604 C126.3839,63.8484 125.5789,62.6554 124.4739,62.6034 C120.8779,62.4364 117.6189,61.5604 114.4239,59.9014 C112.7129,59.0124 111.1939,61.6004 112.9089,62.4924 C116.5629,64.3884 117.9049,65.1934 122.0179,65.3844 C121.5859,64.6324 122.4489,66.1374 122.0179,65.3844 C119.4499,69.6184 118.8659,72.0994 117.9499,76.9684 C117.5949,78.8554 120.4859,79.6634 120.8429,77.7654" id="Fill-25" fill="#000000"></path>
            <path d="M176.8805,51.24 L170.4275,26.346 L175.3955,26.346 C177.5925,36.658 179.2125,43.522 179.5615,46.298 L179.5975,46.298 C180.4435,42.191 183.1945,32.475 184.7065,26.346 L188.9855,26.346 C190.3385,31.391 193.1585,42.072 193.8835,46.085 L193.9185,46.085 C194.7355,41.008 197.5345,30.641 198.5805,26.346 L203.1345,26.346 L196.2135,51.24 L191.3325,51.24 C189.9545,45.654 187.4185,36.3 186.6335,32.474 L186.5975,32.474 C185.7475,36.658 183.1725,45.986 181.7515,51.24 L176.8805,51.24 Z" id="Fill-27" fill="#000000"></path>
            <polygon id="Fill-29" fill="#000000" points="226.8327 40.1951 214.7647 40.1951 214.7647 47.3711 228.0567 47.3711 227.4907 51.2401 210.2217 51.2401 210.2217 26.3461 227.3797 26.3461 227.3797 30.2151 214.7647 30.2151 214.7647 36.3261 226.8327 36.3261"></polygon>
            <path d="M240.3278,47.573 L245.6268,47.573 C248.6098,47.573 250.2218,46.27 250.2218,43.723 C250.2218,41.478 248.7748,40.015 245.3898,40.015 L240.3278,40.015 L240.3278,47.573 Z M245.5458,36.347 C248.4628,36.347 249.6388,35.107 249.6388,33.125 C249.6388,31.171 248.1878,30.013 245.8218,30.013 L240.3278,30.013 L240.3278,36.347 L245.5458,36.347 Z M235.7448,26.346 L246.1678,26.346 C251.9258,26.346 254.2648,29.356 254.2648,32.664 C254.2648,35.5 252.7178,37.343 250.9578,38.07 C252.6558,38.675 255.0138,40.438 255.0138,43.843 C255.0138,48.252 251.5868,51.24 246.4888,51.24 L235.7448,51.24 L235.7448,26.346 Z" id="Fill-31" fill="#000000"></path>
            <path d="M164.7785,14.1976 C158.9495,11.4336 152.4305,16.0216 150.5345,21.7416 C149.6945,24.2766 149.8665,26.7736 151.4835,28.9376 C152.6205,30.4586 154.4045,31.2626 155.6695,32.6346 C158.9105,36.1486 154.6155,37.2246 151.7445,38.6256 C150.7945,39.0906 150.7345,40.7726 151.7445,41.2166 C153.6805,42.0676 156.3605,42.4116 156.3835,44.7336 C156.4005,46.4346 154.8595,48.6276 154.3275,50.2366 C153.3685,53.1386 153.0705,56.1306 154.5005,58.9316 C157.2125,64.2466 163.6485,66.8956 168.7345,63.4776 C170.3275,62.4056 168.8285,59.8056 167.2195,60.8866 C161.9635,64.4206 156.1475,58.9656 156.6225,53.6396 C156.8795,50.7596 158.5855,48.2966 159.2765,45.5306 C160.4415,40.8656 159.9855,41.5206 156.0775,39.8026 C156.0775,40.6656 156.0775,38.9396 156.0775,39.8026 C160.2835,37.7486 162.8225,36.8626 158.8065,31.5606 C156.7275,28.8166 152.3925,27.8186 153.1265,23.5726 C153.8385,19.4586 158.9935,14.7626 163.2645,16.7876 C164.9995,17.6106 166.5235,15.0256 164.7785,14.1976" id="Fill-33" fill="#000000"></path>
            <g id="Group-37" transform="translate(276.000000, 12.907000)">
                <mask id="mask-4" fill="white">
                    <use xlink:href="#path-3"></use>
                </mask>
                <g id="Clip-36"></g>
                <path d="M5.3893,51.7276 C11.2173,54.4916 17.7373,49.9036 19.6323,44.1836 C20.4723,41.6496 20.3013,39.1526 18.6843,36.9886 C17.5473,35.4666 15.7633,34.6626 14.4983,33.2906 C11.2573,29.7766 15.5513,28.7016 18.4223,27.2986 C19.3723,26.8346 19.4333,25.1536 18.4223,24.7086 C16.4863,23.8576 13.8073,23.5126 13.7843,21.1926 C13.7663,19.4916 15.3073,17.2976 15.8393,15.6886 C16.7993,12.7876 17.0963,9.7946 15.6663,6.9946 C12.9543,1.6786 6.5183,-0.9704 1.4333,2.4486 C-0.1607,3.5196 1.3393,6.1196 2.9483,5.0386 C8.2033,1.5046 14.0203,6.9596 13.5443,12.2856 C13.2873,15.1656 11.5813,17.6276 10.8913,20.3956 C9.7263,25.0596 10.1823,24.4056 14.0893,26.1236 C14.0893,25.2596 14.0893,26.9866 14.0893,26.1236 C9.8833,28.1766 7.3443,29.0636 11.3613,34.3656 C13.4403,37.1086 17.7753,38.1066 17.0403,42.3526 C16.3283,46.4666 11.1733,51.1626 6.9033,49.1376 C5.1673,48.3146 3.6433,50.9006 5.3893,51.7276" id="Fill-35" fill="#000000" mask="url(#mask-4)"></path>
            </g>
            <path d="M263.3893,64.6346 C269.2173,67.3986 275.7373,62.8106 277.6323,57.0906 C278.4723,54.5566 278.3013,52.0596 276.6843,49.8956 C275.5473,48.3736 273.7633,47.5696 272.4983,46.1976 C269.2573,42.6836 273.5513,41.6086 276.4223,40.2056 C277.3723,39.7416 277.4333,38.0606 276.4223,37.6156 C274.4863,36.7646 271.8073,36.4196 271.7843,34.0996 C271.7663,32.3986 273.3073,30.2046 273.8393,28.5956 C274.7993,25.6946 275.0963,22.7016 273.6663,19.9016 C270.9543,14.5856 264.5183,11.9366 259.4333,15.3556 C257.8393,16.4266 259.3393,19.0266 260.9483,17.9456 C266.2033,14.4116 272.0203,19.8666 271.5443,25.1926 C271.2873,28.0726 269.5813,30.5346 268.8913,33.3026 C267.7263,37.9666 268.1823,37.3126 272.0893,39.0306 C272.0893,38.1666 272.0893,39.8936 272.0893,39.0306 C267.8833,41.0836 265.3443,41.9706 269.3613,47.2726 C271.4403,50.0156 275.7753,51.0136 275.0403,55.2596 C274.3283,59.3736 269.1733,64.0696 264.9033,62.0446 C263.1673,61.2216 261.6433,63.8076 263.3893,64.6346" id="Fill-38" fill="#000000"></path>
        </g>
    </g>
</svg>