
<svg width="183px" height="32px" viewBox="0 0 183 32" version="1.1" xmlns="http://www.w3.org/2000/svg" xmlns:xlink="http://www.w3.org/1999/xlink">
    <defs>
        <polygon id="path-1" points="0.0207 0.7523 12.0447 0.7523 12.0447 32 0.0207 32"></polygon>
        <polygon id="path-3" points="0.1848 0.7523 12.2088 0.7523 12.2088 32 0.1848 32"></polygon>
    </defs>
    <g id="Page-1" stroke="none" stroke-width="1" fill="none" fill-rule="evenodd">
        <g id="Group-17" transform="translate(0.000000, -1.000000)">
            <path d="M0,3.5646 L0,28.6116 L15.246,28.6116 L15.246,22.0396 L8.337,22.0396 L8.337,3.5646 L0,3.5646 Z M3.755,6.5686 L4.731,6.5686 L4.731,24.7066 L13.143,24.7066 L13.143,25.6086 L3.755,25.6086 L3.755,6.5686 Z" id="Fill-1" fill="#000000"></path>
            <path d="M33.7578,20.8384 L32.0688,16.4454 L30.3788,20.8384 L33.7578,20.8384 Z M32.0688,7.4704 L37.9258,22.8294 L26.2098,22.8294 L32.0688,7.4704 Z M25.1588,25.6084 L25.8718,23.7304 L38.2638,23.7304 L38.9778,25.6084 L40.0288,25.6084 L32.7818,6.5684 L31.3548,6.5684 L24.1068,25.6084 L25.1588,25.6084 Z M29.0638,3.5654 L35.0718,3.5654 L44.5728,28.6114 L36.6868,28.6114 L35.8608,26.3594 L28.2758,26.3594 L27.4488,28.6114 L19.5638,28.6114 L29.0638,3.5654 Z" id="Fill-2" fill="#000000"></path>
            <path d="M64.1367,25.608 L64.5117,24.707 L55.3867,24.707 L63.9497,6.569 L55.0117,6.569 L54.6737,7.47 L62.4097,7.47 L53.8477,25.608 L64.1367,25.608 Z M57.4147,10.136 L50.5057,10.136 L53.0587,3.565 L69.0937,3.565 L60.3817,22.04 L68.6057,22.04 L66.0897,28.612 L48.7027,28.612 L57.4147,10.136 Z" id="Fill-3" fill="#000000"></path>
            <g id="Group-16" transform="translate(73.000000, 0.247600)">
                <g id="Group-6">
                    <mask id="mask-2" fill="white">
                        <use xlink:href="#path-1"></use>
                    </mask>
                    <g id="Clip-5"></g>
                    <path d="M3.2607,15.9443 C4.1967,15.8963 4.9407,15.5963 5.4927,15.0443 C6.0447,14.4923 6.3207,13.6763 6.3207,12.5963 L6.3207,6.1523 C6.3207,5.0483 6.8127,4.4963 7.7967,4.4963 L9.6687,4.4963 L9.6687,3.6323 L7.7967,3.6323 C6.9557,3.6323 6.3437,3.8543 5.9607,4.2983 C5.5767,4.7423 5.3847,5.3603 5.3847,6.1523 L5.3847,12.5963 C5.3847,13.1723 5.3007,13.6343 5.1327,13.9823 C4.9647,14.3303 4.7547,14.5943 4.5027,14.7743 C4.2507,14.9543 3.9747,15.0743 3.6747,15.1343 C3.3747,15.1943 3.1047,15.2243 2.8647,15.2243 L2.3967,15.2243 L2.3967,17.5283 L2.8647,17.5283 C3.1047,17.5283 3.3747,17.5583 3.6747,17.6183 C3.9747,17.6783 4.2507,17.7983 4.5027,17.9783 C4.7547,18.1583 4.9647,18.4233 5.1327,18.7703 C5.3007,19.1183 5.3847,19.5803 5.3847,20.1563 L5.3847,26.6003 C5.3847,27.3923 5.5767,28.0103 5.9607,28.4543 C6.3437,28.8973 6.9557,29.1203 7.7967,29.1203 L9.6687,29.1203 L9.6687,28.2563 L7.7967,28.2563 C6.8127,28.2563 6.3207,27.7043 6.3207,26.6003 L6.3207,20.1563 C6.3207,19.0763 6.0447,18.2603 5.4927,17.7083 C4.9407,17.1563 4.1967,16.8563 3.2607,16.8083 L3.2607,15.9443 Z M0.0207,19.2563 L0.0207,13.4963 L0.8127,13.4963 C0.9807,13.4963 1.1667,13.4783 1.3707,13.4423 C1.5737,13.4063 1.7607,13.3343 1.9287,13.2263 C2.0957,13.1183 2.2347,12.9503 2.3427,12.7223 C2.4507,12.4943 2.5047,12.2003 2.5047,11.8403 L2.5047,6.6563 C2.5047,2.7203 4.2927,0.7523 7.8687,0.7523 L12.0447,0.7523 L12.0447,6.8363 L9.3447,6.8363 C9.1287,6.8363 8.9897,6.9023 8.9307,7.0343 C8.8707,7.1663 8.8407,7.3043 8.8407,7.4483 L8.8407,12.5603 C8.8407,13.3283 8.7197,13.9583 8.4807,14.4503 C8.2397,14.9423 7.9767,15.3323 7.6887,15.6203 C7.3517,15.9563 6.9807,16.2083 6.5727,16.3763 C6.9807,16.5443 7.3517,16.7963 7.6887,17.1323 C7.9767,17.4203 8.2397,17.8103 8.4807,18.3023 C8.7197,18.7943 8.8407,19.4243 8.8407,20.1923 L8.8407,25.3043 C8.8407,25.4483 8.8707,25.5863 8.9307,25.7183 C8.9897,25.8503 9.1287,25.9163 9.3447,25.9163 L12.0447,25.9163 L12.0447,32.0003 L7.8687,32.0003 C4.2927,32.0003 2.5047,30.0323 2.5047,26.0963 L2.5047,20.9123 C2.5047,20.5523 2.4507,20.2583 2.3427,20.0303 C2.2347,19.8023 2.0957,19.6343 1.9287,19.5263 C1.7607,19.4183 1.5737,19.3463 1.3707,19.3103 C1.1667,19.2743 0.9807,19.2563 0.8127,19.2563 L0.0207,19.2563 Z" id="Fill-4" fill="#000000" mask="url(#mask-2)"></path>
                </g>
                <g id="Group-9" transform="translate(16.000000, 0.000000)">
                    <mask id="mask-4" fill="white">
                        <use xlink:href="#path-3"></use>
                    </mask>
                    <g id="Clip-8"></g>
                    <path d="M3.4248,15.9443 C4.3608,15.8963 5.1048,15.5963 5.6568,15.0443 C6.2088,14.4923 6.4848,13.6763 6.4848,12.5963 L6.4848,6.1523 C6.4848,5.0483 6.9768,4.4963 7.9608,4.4963 L9.8328,4.4963 L9.8328,3.6323 L7.9608,3.6323 C7.1198,3.6323 6.5078,3.8543 6.1248,4.2983 C5.7408,4.7423 5.5488,5.3603 5.5488,6.1523 L5.5488,12.5963 C5.5488,13.1723 5.4648,13.6343 5.2968,13.9823 C5.1288,14.3303 4.9188,14.5943 4.6668,14.7743 C4.4148,14.9543 4.1388,15.0743 3.8388,15.1343 C3.5388,15.1943 3.2688,15.2243 3.0288,15.2243 L2.5608,15.2243 L2.5608,17.5283 L3.0288,17.5283 C3.2688,17.5283 3.5388,17.5583 3.8388,17.6183 C4.1388,17.6783 4.4148,17.7983 4.6668,17.9783 C4.9188,18.1583 5.1288,18.4233 5.2968,18.7703 C5.4648,19.1183 5.5488,19.5803 5.5488,20.1563 L5.5488,26.6003 C5.5488,27.3923 5.7408,28.0103 6.1248,28.4543 C6.5078,28.8973 7.1198,29.1203 7.9608,29.1203 L9.8328,29.1203 L9.8328,28.2563 L7.9608,28.2563 C6.9768,28.2563 6.4848,27.7043 6.4848,26.6003 L6.4848,20.1563 C6.4848,19.0763 6.2088,18.2603 5.6568,17.7083 C5.1048,17.1563 4.3608,16.8563 3.4248,16.8083 L3.4248,15.9443 Z M0.1848,19.2563 L0.1848,13.4963 L0.9768,13.4963 C1.1448,13.4963 1.3308,13.4783 1.5348,13.4423 C1.7378,13.4063 1.9248,13.3343 2.0928,13.2263 C2.2598,13.1183 2.3988,12.9503 2.5068,12.7223 C2.6148,12.4943 2.6688,12.2003 2.6688,11.8403 L2.6688,6.6563 C2.6688,2.7203 4.4568,0.7523 8.0328,0.7523 L12.2088,0.7523 L12.2088,6.8363 L9.5088,6.8363 C9.2928,6.8363 9.1538,6.9023 9.0948,7.0343 C9.0348,7.1663 9.0048,7.3043 9.0048,7.4483 L9.0048,12.5603 C9.0048,13.3283 8.8838,13.9583 8.6448,14.4503 C8.4038,14.9423 8.1408,15.3323 7.8528,15.6203 C7.5158,15.9563 7.1448,16.2083 6.7368,16.3763 C7.1448,16.5443 7.5158,16.7963 7.8528,17.1323 C8.1408,17.4203 8.4038,17.8103 8.6448,18.3023 C8.8838,18.7943 9.0048,19.4243 9.0048,20.1923 L9.0048,25.3043 C9.0048,25.4483 9.0348,25.5863 9.0948,25.7183 C9.1538,25.8503 9.2928,25.9163 9.5088,25.9163 L12.2088,25.9163 L12.2088,32.0003 L8.0328,32.0003 C4.4568,32.0003 2.6688,30.0323 2.6688,26.0963 L2.6688,20.9123 C2.6688,20.5523 2.6148,20.2583 2.5068,20.0303 C2.3988,19.8023 2.2598,19.6343 2.0928,19.5263 C1.9248,19.4183 1.7378,19.3463 1.5348,19.3103 C1.3308,19.2743 1.1448,19.2563 0.9768,19.2563 L0.1848,19.2563 Z" id="Fill-7" fill="#000000" mask="url(#mask-4)"></path>
                </g>
                <path d="M43.2539,25.3604 L48.2479,9.6264 L53.2419,25.3604 L54.1819,25.3604 L60.4519,6.3214 L59.4389,6.3214 L53.7309,23.6324 L48.2479,6.3214 L42.7659,23.6324 L37.0579,6.3214 L36.0439,6.3214 L42.3159,25.3604 L43.2539,25.3604 Z M31.2369,3.3174 L39.7239,3.3174 L42.6149,12.0674 L45.5069,3.3174 L50.9889,3.3174 L53.8809,12.0674 L56.7729,3.3174 L65.2589,3.3174 L56.9979,28.3644 L50.7639,28.3644 L48.2479,20.7784 L45.7329,28.3644 L39.4989,28.3644 L31.2369,3.3174 Z" id="Fill-10" fill="#000000"></path>
                <path d="M81.8198,25.3604 L81.8198,24.4594 L74.3098,24.4594 L74.3098,16.2354 L81.4438,16.2354 L81.4438,15.3344 L74.3098,15.3344 L74.3098,7.2224 L81.8198,7.2224 L81.8198,6.3214 L73.3328,6.3214 L73.3328,25.3604 L81.8198,25.3604 Z M69.5778,3.3174 L84.3358,3.3174 L84.3358,9.8884 L77.5758,9.8884 L77.5758,12.6674 L84.2218,12.6674 L84.2218,18.9014 L77.5758,18.9014 L77.5758,21.7924 L84.5978,21.7924 L84.5978,28.3644 L69.5778,28.3644 L69.5778,3.3174 Z" id="Fill-12" fill="#000000"></path>
                <path d="M99.2427,22.4688 C101.1447,22.4688 102.0967,21.7428 102.0967,20.2908 C102.0967,18.8388 101.1447,18.1128 99.2427,18.1128 L98.3417,18.1128 L98.3417,22.4688 L99.2427,22.4688 Z M101.1207,10.9408 C101.1207,9.7888 100.4947,9.2128 99.2427,9.2128 L98.3417,9.2128 L98.3417,12.6678 L99.2427,12.6678 C100.4947,12.6678 101.1207,12.0928 101.1207,10.9408 L101.1207,10.9408 Z M95.3377,24.4588 L95.3377,15.8598 L99.7307,15.8598 C100.5067,15.8598 101.2257,15.9408 101.8897,16.1038 C102.5537,16.2668 103.1357,16.5168 103.6367,16.8548 C104.1377,17.1928 104.5307,17.6368 104.8187,18.1878 C105.1067,18.7388 105.2507,19.3898 105.2507,20.1408 C105.2507,21.6678 104.7437,22.7688 103.7297,23.4448 C102.7167,24.1208 101.3837,24.4588 99.7307,24.4588 L95.3377,24.4588 Z M95.3377,14.9588 L95.3377,7.2228 L99.7677,7.2228 C101.3947,7.2228 102.5657,7.5798 103.2797,8.2928 C103.9927,9.0068 104.3497,9.9398 104.3497,11.0908 C104.3497,12.2418 103.9927,13.1748 103.2797,13.8878 C102.5657,14.6018 101.3947,14.9588 99.7677,14.9588 L95.3377,14.9588 Z M99.7677,25.3608 C101.9717,25.3608 103.5987,24.8848 104.6497,23.9328 C105.7017,22.9818 106.2267,21.7178 106.2267,20.1408 C106.2267,19.1148 106.0087,18.2948 105.5697,17.6808 C105.1327,17.0678 104.6627,16.5858 104.1617,16.2348 C103.5357,15.8348 102.8477,15.5588 102.0967,15.4088 C102.6977,15.2338 103.2357,14.9588 103.7117,14.5828 C104.1377,14.2578 104.5187,13.8128 104.8567,13.2498 C105.1947,12.6868 105.3637,11.9678 105.3637,11.0908 C105.3637,9.5128 104.8627,8.3248 103.8617,7.5228 C102.8597,6.7218 101.4957,6.3218 99.7677,6.3218 L94.3607,6.3218 L94.3607,25.3608 L99.7677,25.3608 Z M90.6057,3.3178 L100.4067,3.3178 C101.6587,3.3178 102.8037,3.4618 103.8437,3.7488 C104.8817,4.0368 105.7697,4.4628 106.5097,5.0258 C107.2477,5.5898 107.8237,6.2908 108.2357,7.1288 C108.6487,7.9678 108.8557,8.9498 108.8557,10.0768 C108.8557,10.8778 108.7557,11.5598 108.5557,12.1228 C108.3547,12.6868 108.1417,13.1558 107.9177,13.5308 C107.6407,13.9818 107.3287,14.3578 106.9777,14.6578 C107.5287,15.0088 108.0297,15.4598 108.4797,16.0098 C108.8557,16.4858 109.1997,17.0868 109.5137,17.8118 C109.8257,18.5388 109.9827,19.4268 109.9827,20.4788 C109.9827,21.6798 109.7687,22.7688 109.3447,23.7458 C108.9187,24.7218 108.3107,25.5538 107.5227,26.2428 C106.7337,26.9318 105.7697,27.4568 104.6317,27.8198 C103.4917,28.1828 102.2217,28.3648 100.8197,28.3648 L90.6057,28.3648 L90.6057,3.3178 Z" id="Fill-14" fill="#000000"></path>
            </g>
        </g>
    </g>
</svg>